<?xml version="1.0" encoding="utf-8"?>
<!-- Svg Vector Icons : http://www.onlinewebfonts.com/icon -->
<!DOCTYPE svg PUBLIC "-//W3C//DTD SVG 1.1//EN" "http://www.w3.org/Graphics/SVG/1.1/DTD/svg11.dtd">
<svg version="1.1" xmlns="http://www.w3.org/2000/svg" xmlns:xlink="http://www.w3.org/1999/xlink" x="0px" y="0px" viewBox="0 0 1000 1000" enable-background="new 0 0 1000 1000" xml:space="preserve">
<metadata> Svg Vector Icons : http://www.onlinewebfonts.com/icon </metadata>
<g><g transform="translate(0.000000,511.000000) scale(0.100000,-0.100000)"><path d="M6794.8,4964.6c-370.4-79.8-676.9-300.1-811-584.3c-54.3-111.8-105.4-166-198-210.7c-185.2-86.2-440.6-357.6-549.2-578c-73.5-150.1-95.8-245.9-105.4-447c-12.8-249-12.8-258.6,99-431.1c63.9-95.8,114.9-204.3,114.9-239.5c0-92.6-172.4-357.6-245.9-379.9c-31.9-9.6-249-31.9-482.1-51.1C3435.7,1947.2,2663,1509.8,2276.6,714.7c-380-785.5-415.1-1979.7-76.6-2720.4l79.8-175.6l-198-210.7c-341.7-360.8-517.3-833.4-443.8-1181.4c70.3-328.9,239.5-577.9,533.2-788.7c249.1-178.8,491.7-287.4,823.8-364c220.3-54.3,376.8-63.9,1076-63.9c1625.2,0,2493.7,146.9,2723.6,456.6c108.5,146.9,70.2,447-73.5,555.6s-395.9,83-1392.1-146.9c-546-124.5-1015.4-191.6-1494.3-213.9c-648.2-31.9-1034.6,92.6-1248.5,395.9c-79.8,111.8-99,175.6-108.6,360.8c-19.2,316.1,105.4,641.8,169.2,440.6c12.8-38.3,86.2-95.8,169.2-137.3c143.7-63.9,188.4-67.1,1331.5-67.1c1286.8,0,1491.1,22.3,1634.8,162.9c159.6,159.6,54.3,277.8-389.6,437.4c-153.3,57.5-296.9,127.7-316.1,159.6c-38.3,63.8,3.2,108.6,265,284.2c76.6,54.3,201.2,198,309.7,360.8c99,150.1,194.8,271.4,210.7,271.4c12.8,0,25.5-35.1,25.5-79.8c0-172.4,271.4-756.8,485.3-1037.7c143.7-191.6,405.5-427.9,549.2-501.3c284.2-143.7,654.6-63.8,734.4,162.9c67,178.8-86.2,360.8-328.9,392.7c-159.6,22.4-258.6,127.7-392.7,418.3c-118.1,261.8-290.5,865.3-357.6,1248.5l-51.1,297l194.8,213.9c402.3,434.2,676.9,894,782.3,1312.3c41.5,166,51.1,296.9,35.1,664.1c-19.2,389.6-12.8,453.4,28.7,453.4c121.4,0,613.1,319.3,753.6,491.7c35.1,41.5,57.5,121.3,57.5,213.9c0,134.1-22.4,178.8-242.7,478.9c-322.5,437.4-645,750.4-932.4,900.4l-223.5,118.1l86.2,249c51.1,134.1,99,300.2,108.6,367.2c19.2,115,16,118.1-83,115C7034.2,5009.3,6900.1,4987,6794.8,4964.6z"/></g></g>
</svg>